# 3ds Max Wavefront OBJ Exporter v0.99 - (c)2007 guruware
# File Created: 24.05.2025 14:55:51

mtllib star1.mtl

#
# object star
#

v  5771.6240 0.0035 -5771.6260
v  2334.4426 1300.5707 -2334.4766
v  8162.3179 8449.3262 0.0354
v  -2334.4429 1300.5690 2334.4771
v  2334.4766 1300.5695 2334.4434
v  -0.0332 8449.3232 8162.3208
v  -5771.6255 0.0010 -5771.6255
v  0.0310 8449.3271 -8162.3164
v  -0.0011 0.0015 -3271.7617
v  -2334.4768 1300.5702 -2334.4426
v  -8162.3198 8449.3242 -0.0305
v  -0.0004 4759.6914 0.0012
v  -2334.4438 -1300.5680 -2334.4780
v  2334.4758 -1300.5665 -2334.4441
v  -0.0309 -8449.3232 -8162.3203
v  -2334.4771 -1300.5687 2334.4414
v  -8162.3164 -8449.3262 0.0306
v  -3271.7617 0.0000 -0.0009
v  5771.6240 0.0019 5771.6240
v  2334.4421 -1300.5668 2334.4753
v  8162.3208 -8449.3193 -0.0336
v  3271.7603 0.0020 -0.0006
v  -5771.6255 -0.0015 5771.6245
v  0.0350 -8449.3223 8162.3174
v  0.0006 -4759.6885 -0.0015
v  -0.0002 0.0004 3271.7603
# 26 vertices

vn 1.0000 0.0000 -0.0000
vn 0.6105 0.5045 0.6105
vn 0.7071 -0.0000 0.7071
vn 0.7083 0.7059 0.0000
vn 0.6105 0.5045 -0.6105
vn -0.0000 1.0000 0.0000
vn 0.6105 0.5045 0.6105
vn 0.7083 0.7059 0.0000
vn -0.0000 1.0000 0.0000
vn 0.6105 0.5045 -0.6105
vn 0.7083 0.7059 0.0000
vn 1.0000 0.0000 -0.0000
vn 0.7071 0.0000 -0.7071
vn 0.6105 0.5045 -0.6105
vn 1.0000 0.0000 -0.0000
vn 0.7083 0.7059 0.0000
vn 0.6105 0.5045 0.6105
vn 1.0000 0.0000 -0.0000
vn -0.0000 -0.0000 1.0000
vn -0.6105 0.5045 0.6105
vn -0.7071 -0.0000 0.7071
vn -0.0000 0.7059 0.7083
vn 0.6105 0.5045 0.6105
vn -0.0000 1.0000 0.0000
vn -0.6105 0.5045 0.6105
vn -0.0000 0.7059 0.7083
vn -0.0000 1.0000 0.0000
vn 0.6105 0.5045 0.6105
vn -0.0000 0.7059 0.7083
vn -0.0000 -0.0000 1.0000
vn 0.7071 -0.0000 0.7071
vn 0.6105 0.5045 0.6105
vn -0.0000 -0.0000 1.0000
vn -0.0000 0.7059 0.7083
vn -0.6105 0.5045 0.6105
vn -0.0000 -0.0000 1.0000
vn 0.0000 0.0000 -1.0000
vn 0.6105 0.5045 -0.6105
vn 0.7071 0.0000 -0.7071
vn 0.0000 0.7059 -0.7083
vn -0.6105 0.5045 -0.6105
vn -0.0000 1.0000 0.0000
vn 0.6105 0.5045 -0.6105
vn 0.0000 0.7059 -0.7083
vn -0.0000 1.0000 0.0000
vn -0.6105 0.5045 -0.6105
vn 0.0000 0.7059 -0.7083
vn 0.0000 0.0000 -1.0000
vn -0.7071 0.0000 -0.7071
vn -0.6105 0.5045 -0.6105
vn 0.0000 0.0000 -1.0000
vn 0.0000 0.7059 -0.7083
vn 0.6105 0.5045 -0.6105
vn 0.0000 0.0000 -1.0000
vn -1.0000 -0.0000 0.0000
vn -0.6105 0.5045 -0.6105
vn -0.7071 0.0000 -0.7071
vn -0.7083 0.7059 -0.0000
vn -0.6105 0.5045 0.6105
vn -0.0000 1.0000 0.0000
vn -0.6105 0.5045 -0.6105
vn -0.7083 0.7059 -0.0000
vn -0.0000 1.0000 0.0000
vn -0.6105 0.5045 0.6105
vn -0.7083 0.7059 -0.0000
vn -1.0000 -0.0000 0.0000
vn -0.7071 -0.0000 0.7071
vn -0.6105 0.5045 0.6105
vn -1.0000 -0.0000 0.0000
vn -0.7083 0.7059 -0.0000
vn -0.6105 0.5045 -0.6105
vn -1.0000 -0.0000 0.0000
vn 0.0000 0.0000 -1.0000
vn -0.6105 -0.5045 -0.6105
vn -0.7071 0.0000 -0.7071
vn -0.0000 -0.7059 -0.7083
vn 0.6105 -0.5045 -0.6105
vn 0.0000 -1.0000 0.0000
vn -0.6105 -0.5045 -0.6105
vn -0.0000 -0.7059 -0.7083
vn 0.0000 -1.0000 0.0000
vn 0.6105 -0.5045 -0.6105
vn -0.0000 -0.7059 -0.7083
vn 0.0000 0.0000 -1.0000
vn 0.7071 0.0000 -0.7071
vn 0.6105 -0.5045 -0.6105
vn 0.0000 0.0000 -1.0000
vn -0.0000 -0.7059 -0.7083
vn -0.6105 -0.5045 -0.6105
vn 0.0000 0.0000 -1.0000
vn -1.0000 -0.0000 0.0000
vn -0.6105 -0.5045 0.6105
vn -0.7071 -0.0000 0.7071
vn -0.7083 -0.7059 0.0000
vn -0.6105 -0.5045 -0.6105
vn 0.0000 -1.0000 0.0000
vn -0.6105 -0.5045 0.6105
vn -0.7083 -0.7059 0.0000
vn 0.0000 -1.0000 0.0000
vn -0.6105 -0.5045 -0.6105
vn -0.7083 -0.7059 0.0000
vn -1.0000 -0.0000 0.0000
vn -0.7071 0.0000 -0.7071
vn -0.6105 -0.5045 -0.6105
vn -1.0000 -0.0000 0.0000
vn -0.7083 -0.7059 0.0000
vn -0.6105 -0.5045 0.6105
vn -1.0000 -0.0000 0.0000
vn 1.0000 0.0000 -0.0000
vn 0.6105 -0.5045 -0.6105
vn 0.7071 0.0000 -0.7071
vn 0.7083 -0.7059 -0.0000
vn 0.6105 -0.5045 0.6105
vn 0.0000 -1.0000 0.0000
vn 0.6105 -0.5045 -0.6105
vn 0.7083 -0.7059 -0.0000
vn 0.0000 -1.0000 0.0000
vn 0.6105 -0.5045 0.6105
vn 0.7083 -0.7059 -0.0000
vn 1.0000 0.0000 -0.0000
vn 0.7071 -0.0000 0.7071
vn 0.6105 -0.5045 0.6105
vn 1.0000 0.0000 -0.0000
vn 0.7083 -0.7059 -0.0000
vn 0.6105 -0.5045 -0.6105
vn 1.0000 0.0000 -0.0000
vn -0.0000 -0.0000 1.0000
vn 0.6105 -0.5045 0.6105
vn 0.7071 -0.0000 0.7071
vn 0.0000 -0.7059 0.7083
vn -0.6105 -0.5045 0.6105
vn 0.0000 -1.0000 0.0000
vn 0.6105 -0.5045 0.6105
vn 0.0000 -0.7059 0.7083
vn 0.0000 -1.0000 0.0000
vn -0.6105 -0.5045 0.6105
vn 0.0000 -0.7059 0.7083
vn -0.0000 -0.0000 1.0000
vn -0.7071 -0.0000 0.7071
vn -0.6105 -0.5045 0.6105
vn -0.0000 -0.0000 1.0000
vn 0.0000 -0.7059 0.7083
vn 0.6105 -0.5045 0.6105
vn -0.0000 -0.0000 1.0000
# 144 vertex normals

vt -0.0000 0.0000 0.0000
vt -0.0000 0.5000 0.0000
vt 1.0000 1.0000 0.0000
vt 0.5000 1.0000 0.0000
vt -0.0000 1.0000 0.0000
vt 0.5000 0.0000 0.0000
vt 1.0000 0.0000 0.0000
vt 1.0000 0.5000 0.0000
vt 0.0000 0.0000 0.0000
vt 0.5000 0.0000 0.0000
vt 0.0000 0.5000 0.0000
vt 0.2664 0.2336 0.0000
vt 0.7419 0.7581 0.0000
vt 0.2783 0.7783 0.0000
vt -0.0000 0.0000 0.0000
vt -0.0000 0.5000 0.0000
vt 1.0000 1.0000 0.0000
vt 0.5000 1.0000 0.0000
vt -0.0000 1.0000 0.0000
vt 0.5000 0.0000 0.0000
vt 1.0000 0.0000 0.0000
vt 1.0000 0.5000 0.0000
vt 0.0000 0.0000 0.0000
vt 0.5000 0.0000 0.0000
vt 0.0000 0.5000 0.0000
vt 0.2664 0.2336 0.0000
vt 0.7419 0.7581 0.0000
vt 0.2783 0.7783 0.0000
vt -0.0000 0.0000 0.0000
vt -0.0000 0.5000 0.0000
vt 1.0000 1.0000 0.0000
vt 0.5000 1.0000 0.0000
vt -0.0000 1.0000 0.0000
vt 0.5000 0.0000 0.0000
vt 1.0000 0.0000 0.0000
vt 1.0000 0.5000 0.0000
vt 0.0000 0.0000 0.0000
vt 0.5000 0.0000 0.0000
vt 0.0000 0.5000 0.0000
vt 0.2664 0.2336 0.0000
vt 0.7419 0.7581 0.0000
vt 0.2783 0.7783 0.0000
vt -0.0000 0.0000 0.0000
vt -0.0000 0.5000 0.0000
vt 1.0000 1.0000 0.0000
vt 0.5000 1.0000 0.0000
vt -0.0000 1.0000 0.0000
vt 0.5000 0.0000 0.0000
vt 1.0000 0.0000 0.0000
vt 1.0000 0.5000 0.0000
vt 0.0000 0.0000 0.0000
vt 0.5000 0.0000 0.0000
vt 0.0000 0.5000 0.0000
vt 0.2664 0.2336 0.0000
vt 0.7419 0.7581 0.0000
vt 0.2783 0.7783 0.0000
vt -0.0000 0.0000 0.0000
vt -0.0000 0.5000 0.0000
vt 1.0000 1.0000 0.0000
vt 0.5000 1.0000 0.0000
vt -0.0000 1.0000 0.0000
vt 0.5000 0.0000 0.0000
vt 1.0000 0.0000 0.0000
vt 1.0000 0.5000 0.0000
vt 0.0000 0.0000 0.0000
vt 0.5000 0.0000 0.0000
vt 0.0000 0.5000 0.0000
vt 0.2664 0.2336 0.0000
vt 0.7419 0.7581 0.0000
vt 0.2783 0.7783 0.0000
vt -0.0000 0.0000 0.0000
vt -0.0000 0.5000 0.0000
vt 1.0000 1.0000 0.0000
vt 0.5000 1.0000 0.0000
vt -0.0000 1.0000 0.0000
vt 0.5000 0.0000 0.0000
vt 1.0000 0.0000 0.0000
vt 1.0000 0.5000 0.0000
vt 0.0000 0.0000 0.0000
vt 0.5000 0.0000 0.0000
vt 0.0000 0.5000 0.0000
vt 0.2664 0.2336 0.0000
vt 0.7419 0.7581 0.0000
vt 0.2783 0.7783 0.0000
vt -0.0000 0.0000 0.0000
vt -0.0000 0.5000 0.0000
vt 1.0000 1.0000 0.0000
vt 0.5000 1.0000 0.0000
vt -0.0000 1.0000 0.0000
vt 0.5000 0.0000 0.0000
vt 1.0000 0.0000 0.0000
vt 1.0000 0.5000 0.0000
vt 0.0000 0.0000 0.0000
vt 0.5000 0.0000 0.0000
vt 0.0000 0.5000 0.0000
vt 0.2664 0.2336 0.0000
vt 0.7419 0.7581 0.0000
vt 0.2783 0.7783 0.0000
vt -0.0000 0.0000 0.0000
vt -0.0000 0.5000 0.0000
vt 1.0000 1.0000 0.0000
vt 0.5000 1.0000 0.0000
vt -0.0000 1.0000 0.0000
vt 0.5000 0.0000 0.0000
vt 1.0000 0.0000 0.0000
vt 1.0000 0.5000 0.0000
vt 0.0000 0.0000 0.0000
vt 0.5000 0.0000 0.0000
vt 0.0000 0.5000 0.0000
vt 0.2664 0.2336 0.0000
vt 0.7419 0.7581 0.0000
vt 0.2783 0.7783 0.0000
# 112 texture coords

o star
g star
usemtl 08___Default
s 1
f 22/12/1 5/2/2 19/1/3 
f 3/9/4 2/10/5 12/11/6 
usemtl 09___Default
s 2
f 5/6/7 3/7/8 12/8/9 
s 4
f 2/4/10 3/5/11 22/14/12 
s 2
f 1/3/13 2/4/14 22/13/15 
usemtl 08___Default
s 8
f 3/5/16 5/2/17 22/14/18 
s 1
f 26/26/19 4/16/20 23/15/21 
s 4
f 6/23/22 5/24/23 12/25/24 
usemtl 09___Default
s 8
f 4/20/25 6/21/26 12/22/27 
s 16
f 5/18/28 6/19/29 26/28/30 
s 32
f 19/17/31 5/18/32 26/27/33 
usemtl 08___Default
s 2
f 6/19/34 4/16/35 26/28/36 
s 8
f 9/40/37 2/30/38 1/29/39 
s 16
f 8/37/40 10/38/41 12/39/42 
usemtl 09___Default
s 32
f 2/34/43 8/35/44 12/36/45 
s 1
f 10/32/46 8/33/47 9/42/48 
s 2
f 7/31/49 10/32/50 9/41/51 
usemtl 08___Default
s 64
f 8/33/52 2/30/53 9/42/54 
s 4
f 18/54/55 10/44/56 7/43/57 
s 64
f 11/51/58 4/52/59 12/53/60 
usemtl 09___Default
s 128
f 10/48/61 11/49/62 12/50/63 
s 16
f 4/46/64 11/47/65 18/56/66 
s 32
f 23/45/67 4/46/68 18/55/69 
usemtl 08___Default
s 8
f 11/47/70 10/44/71 18/56/72 
s 16
f 9/68/73 13/58/74 7/57/75 
s 1
f 15/65/76 14/66/77 25/67/78 
usemtl 09___Default
s 2
f 13/62/79 15/63/80 25/64/81 
s 4
f 14/60/82 15/61/83 9/70/84 
s 32
f 1/59/85 14/60/86 9/69/87 
usemtl 08___Default
s 128
f 15/61/88 13/58/89 9/70/90 
s 2
f 18/82/91 16/72/92 23/71/93 
s 4
f 17/79/94 13/80/95 25/81/96 
usemtl 09___Default
s 8
f 16/76/97 17/77/98 25/78/99 
s 1
f 13/74/100 17/75/101 18/84/102 
s 64
f 7/73/103 13/74/104 18/83/105 
usemtl 08___Default
s 128
f 17/75/106 16/72/107 18/84/108 
s 16
f 22/96/109 14/86/110 1/85/111 
f 21/93/112 20/94/113 25/95/114 
usemtl 09___Default
s 64
f 14/90/115 21/91/116 25/92/117 
s 32
f 20/88/118 21/89/119 22/98/120 
s 64
f 19/87/121 20/88/122 22/97/123 
usemtl 08___Default
s 128
f 21/89/124 14/86/125 22/98/126 
s 4
f 26/110/127 20/100/128 19/99/129 
s 32
f 24/107/130 16/108/131 25/109/132 
usemtl 09___Default
s 128
f 20/104/133 24/105/134 25/106/135 
s 64
f 16/102/136 24/103/137 26/112/138 
s 256
f 23/101/139 16/102/140 26/111/141 
usemtl 08___Default
s 8
f 24/103/142 20/100/143 26/112/144 
# 0 polygons - 48 triangles

